<mxfile host="app.diagrams.net" modified="2020-08-16T13:30:43.600Z" agent="5.0 (Windows)" etag="jR3Vrtofs8J4L6xgREjp" version="13.6.2" type="github">
  <diagram id="wFE0QG_FPsp0jaGvCLVb" name="Page-1">
    <mxGraphModel dx="1360" dy="799" grid="1" gridSize="10" guides="1" tooltips="1" connect="1" arrows="1" fold="1" page="1" pageScale="1" pageWidth="850" pageHeight="1100" math="0" shadow="0">
      <root>
        <mxCell id="0" />
        <mxCell id="1" parent="0" />
        <mxCell id="tF7jrImZeHa2CXJ9LrBt-2" value="&lt;h2&gt;（x,t）域&lt;/h2&gt;" style="rounded=1;whiteSpace=wrap;html=1;" vertex="1" parent="1">
          <mxGeometry x="380" y="80" width="120" height="60" as="geometry" />
        </mxCell>
        <mxCell id="tF7jrImZeHa2CXJ9LrBt-3" value="（x,t）域" style="rounded=1;whiteSpace=wrap;html=1;" vertex="1" parent="1">
          <mxGeometry x="380" y="210" width="120" height="60" as="geometry" />
        </mxCell>
        <mxCell id="tF7jrImZeHa2CXJ9LrBt-4" value="" style="rounded=1;whiteSpace=wrap;html=1;" vertex="1" parent="1">
          <mxGeometry x="315" y="360" width="250" height="100" as="geometry" />
        </mxCell>
        <mxCell id="tF7jrImZeHa2CXJ9LrBt-5" value="" style="endArrow=classic;html=1;exitX=0.817;exitY=1.05;exitDx=0;exitDy=0;exitPerimeter=0;entryX=0.817;entryY=-0.083;entryDx=0;entryDy=0;entryPerimeter=0;" edge="1" parent="1" source="tF7jrImZeHa2CXJ9LrBt-2" target="tF7jrImZeHa2CXJ9LrBt-3">
          <mxGeometry width="50" height="50" relative="1" as="geometry">
            <mxPoint x="425" y="200" as="sourcePoint" />
            <mxPoint x="480" y="190" as="targetPoint" />
          </mxGeometry>
        </mxCell>
      </root>
    </mxGraphModel>
  </diagram>
</mxfile>
